<?xml version="1.0" standalone="no"?><!DOCTYPE svg PUBLIC "-//W3C//DTD SVG 1.1//EN" "http://www.w3.org/Graphics/SVG/1.1/DTD/svg11.dtd"><svg t="1637499026736" class="icon" viewBox="0 0 1105 1024" version="1.1" xmlns="http://www.w3.org/2000/svg" p-id="3833" data-spm-anchor-id="a313x.7781069.0.i1" xmlns:xlink="http://www.w3.org/1999/xlink" width="215.8203125" height="200"><defs><style type="text/css"></style></defs><path d="M405.12 864.4608L240.8448 400.64a182.5024 182.5024 0 0 1-40.56064 8.16128l169.4208 478.3616a81.7408 81.7408 0 0 1 35.42016-22.70208zM367.44192 245.76h207.03744c1.0752-13.99808 3.24096-27.63776 6.4-40.96H367.4368c0.7424 6.73792 1.2032 13.55776 1.2032 20.48s-0.4608 13.74208-1.19808 20.48z" fill="#535353" p-id="3834"></path><path d="M367.44192 245.76c0.73728-6.73792 1.19808-13.55776 1.19808-20.48s-0.4608-13.74208-1.19808-20.48C357.20192 112.77824 279.04 40.96 184.32 40.96 82.67776 40.96 0 123.63776 0 225.28s82.67776 184.32 184.32 184.32c5.376 0 10.7008-0.3584 15.95904-0.79872a182.5024 182.5024 0 0 0 40.56064-8.16128C308.63872 378.74176 359.33696 318.6176 367.44192 245.76zM143.36 286.72c-45.184 0-81.92-36.74112-81.92-81.92s36.74112-81.92 81.92-81.92 81.92 36.74112 81.92 81.92-36.74112 81.92-81.92 81.92z" fill="#50CCD3" p-id="3835"></path><path d="M456.7808 862.10048c-0.58368 0.77824-0.98304 1.61792-1.4848 2.44224a81.69472 81.69472 0 0 1 46.50496 38.77888c1.39776-1.28 2.80064-2.58048 3.97824-4.14208l281.46176-371.9424c-21.56032-4.31616-42.04032-11.47904-61.40416-20.67456l-269.056 355.5328z" fill="#535353" p-id="3836"></path><path d="M225.28 204.8c0-45.17888-36.74112-81.92-81.92-81.92-45.184 0-81.92 36.74112-81.92 81.92s36.74112 81.92 81.92 81.92 81.92-36.74112 81.92-81.92z" fill="#3BABB7" p-id="3837"></path><path d="M839.68 0c-125.6192 0-230.94272 87.58272-258.80064 204.8a265.58976 265.58976 0 0 0-6.4 40.96c-0.52224 6.77888-1.03936 13.55776-1.03936 20.48 0 106.0352 62.47936 197.51936 152.3968 240.32256 19.36384 9.19552 39.84384 16.3584 61.40416 20.67456A266.48064 266.48064 0 0 0 839.68 532.48c146.80064 0 266.24-119.43936 266.24-266.24S986.48064 0 839.68 0z m-61.44 348.16c-67.7632 0-122.88-55.12192-122.88-122.88s55.1168-122.88 122.88-122.88c67.75808 0 122.88 55.12192 122.88 122.88s-55.12192 122.88-122.88 122.88z" fill="#63B473" p-id="3838" data-spm-anchor-id="a313x.7781069.0.i0" class=""></path><path d="M778.24 102.4c-67.7632 0-122.88 55.12192-122.88 122.88s55.1168 122.88 122.88 122.88c67.75808 0 122.88-55.12192 122.88-122.88s-55.12192-122.88-122.88-122.88z" fill="#99D59D" p-id="3839"></path><path d="M455.296 864.54272C447.30368 861.94176 438.9376 860.16 430.08 860.16c-8.7552 0-17.03936 1.7408-24.96 4.3008a81.7408 81.7408 0 0 0-35.42016 22.70208C356.45952 901.71904 348.16 920.87808 348.16 942.08c0 45.17888 36.74112 81.92 81.92 81.92s81.92-36.74112 81.92-81.92c0-14.10048-3.90144-27.17696-10.19904-38.7584a81.69472 81.69472 0 0 0-46.49984-38.77888z" fill="#FD5A5A" p-id="3840"></path></svg>