<svg xmlns="http://www.w3.org/2000/svg" viewBox="0 0 356 360">
	<path fill="#050A14"
		d="M188.4 71.7a10.4 10.4 0 01-20.8 0 10.4 10.4 0 1120.8 0zM224.2 45c-2.2-3.9-5-7.5-8.2-10.7l-12 7c-3.7-3.2-8-5.7-12.6-7.3a49.4 49.4 0 00-9.7 13.9 59 59 0 0140.1 14l7.6-4.4a57 57 0 00-5.2-12.5zM178 125.1c4.5 0 9-.6 13.4-1.7v-14a40 40 0 0012.5-7.2 47.7 47.7 0 00-7.1-15.3 59 59 0 01-32.2 27.7v8.7c4.4 1.2 8.9 1.8 13.4 1.8zM131.8 45c-2.3 4-4 8.1-5.2 12.5l12 7a40 40 0 000 14.4c5.7 1.5 11.3 2 16.9 1.5a59 59 0 01-8-41.7l-7.5-4.3c-3.2 3.2-6 6.7-8.2 10.6z" />
	<path fill="#00B4FF"
		d="M224.2 98.4c2.3-3.9 4-8 5.2-12.4l-12-7a40 40 0 000-14.5c-5.7-1.5-11.3-2-16.9-1.5a59 59 0 018 41.7l7.5 4.4c3.2-3.2 6-6.8 8.2-10.7zm-92.4 0c2.2 4 5 7.5 8.2 10.7l12-7a40 40 0 0012.6 7.3c4-4.1 7.3-8.8 9.7-13.8a59 59 0 01-40-14l-7.7 4.4c1.2 4.3 3 8.5 5.2 12.4zm46.2-80c-4.5 0-9 .5-13.4 1.7V34a40 40 0 00-12.5 7.2c1.5 5.7 4 10.8 7.1 15.4a59 59 0 0132.2-27.7V20a53.3 53.3 0 00-13.4-1.8z" />
	<path fill="#00B4FF"
		d="M178 9.2a62.6 62.6 0 11-.1 125.2A62.6 62.6 0 01178 9.2m0-9.2a71.7 71.7 0 100 143.5A71.7 71.7 0 00178 0z" />
</svg>
